<svg width="25" height="29" viewBox="0 0 25 29" fill="none" xmlns="http://www.w3.org/2000/svg">
<path d="M12.5069 0.5C16.229 0.5 19.2891 3.44827 19.4444 7.18405H19.4082C19.4125 7.29264 19.3918 7.40078 19.3477 7.5H19.5645C21.2548 7.5 23.0248 8.68091 23.7345 11.5317L23.8116 11.8681L24.8795 20.5406C25.648 26.072 22.6458 28.3982 18.5503 28.4967L18.2757 28.5H6.76185C2.59969 28.5 -0.607577 26.9712 0.0976123 20.917L0.145701 20.5406L1.22589 11.8681C1.75853 8.79806 3.54668 7.58715 5.26961 7.50457L5.46071 7.5H5.56929C5.55098 7.39549 5.55098 7.28857 5.56929 7.18405C5.72461 3.44827 8.78471 0.5 12.5069 0.5ZM8.46805 12.161C7.79013 12.161 7.24057 12.7312 7.24057 13.4345C7.24057 14.1378 7.79013 14.708 8.46805 14.708C9.14597 14.708 9.69554 14.1378 9.69554 13.4345L9.68597 13.2748C9.61023 12.6468 9.09382 12.161 8.46805 12.161ZM16.5081 12.161C15.8302 12.161 15.2806 12.7312 15.2806 13.4345C15.2806 14.1378 15.8302 14.708 16.5081 14.708C17.186 14.708 17.7356 14.1378 17.7356 13.4345C17.7356 12.7312 17.186 12.161 16.5081 12.161ZM12.4524 2.32334C9.78005 2.32334 7.61367 4.49955 7.61367 7.18405C7.63198 7.28857 7.63198 7.39549 7.61367 7.5H17.3517C17.313 7.39912 17.2925 7.29214 17.2912 7.18405C17.2912 4.49955 15.1248 2.32334 12.4524 2.32334Z" fill="#1E1E1E"/>
</svg>
