<svg width="16" height="16" viewBox="0 0 16 16" fill="none" xmlns="http://www.w3.org/2000/svg">
<path d="M7.33398 6.33354L8.66732 6.3335H12.0007C12.1775 6.3335 12.347 6.40373 12.4721 6.52876C12.5971 6.65378 12.6673 6.82335 12.6673 7.00016C12.6673 7.17697 12.5971 7.34654 12.4721 7.47157C12.347 7.59659 12.1775 7.66683 12.0007 7.66683H8.66732H7.33398H4.00065C3.82384 7.66683 3.65427 7.59659 3.52925 7.47157C3.40422 7.34654 3.33398 7.17697 3.33398 7.00016C3.33398 6.82335 3.40422 6.65378 3.52925 6.52876C3.65427 6.40373 3.82384 6.3335 4.00065 6.3335L7.33398 6.33354Z" fill="#8D8D8D"/>
</svg>
