<svg width="16" height="16" viewBox="0 0 16 16" fill="none" xmlns="http://www.w3.org/2000/svg">
<path d="M8.93294 6.6001V3.26676C8.93294 3.08995 8.8627 2.92038 8.73768 2.79536C8.61266 2.67034 8.44309 2.6001 8.26628 2.6001C8.08946 2.6001 7.9199 2.67034 7.79487 2.79536C7.66985 2.92038 7.59961 3.08995 7.59961 3.26676V6.6001H4.26628C4.08947 6.6001 3.9199 6.67034 3.79487 6.79536C3.66985 6.92038 3.59961 7.08995 3.59961 7.26676C3.59961 7.44357 3.66985 7.61314 3.79487 7.73817C3.9199 7.86319 4.08947 7.93343 4.26628 7.93343H7.59961V11.2668C7.59961 11.4436 7.66985 11.6131 7.79487 11.7382C7.9199 11.8632 8.08946 11.9334 8.26628 11.9334C8.44309 11.9334 8.61266 11.8632 8.73768 11.7382C8.8627 11.6131 8.93294 11.4436 8.93294 11.2668V7.93343H12.2663C12.4431 7.93343 12.6127 7.86319 12.7377 7.73817C12.8627 7.61314 12.9329 7.44357 12.9329 7.26676C12.9329 7.08995 12.8627 6.92038 12.7377 6.79536C12.6127 6.67034 12.4431 6.6001 12.2663 6.6001H8.93294Z" fill="#1E1E1E"/>
</svg>
