<svg width="936" height="298" viewBox="0 0 936 298" fill="none" xmlns="http://www.w3.org/2000/svg">
<g style="mix-blend-mode:darken">
<path d="M653.642 1.54883L646.326 82.8203L641.723 134.186L638.91 143.823L633.966 155.589L629.32 163.713H735.42L811.332 167.854L842.386 173.199L840.515 163.843L836.203 153.591L829.531 144.885H827.09L826.033 142.362L826.602 136.016L824.08 124.381L820.988 109.329L819.523 105.993V104.365L820.582 100.704L820.093 93.4629L818.384 88.9883L814.316 86.8721V85.7334L819.117 82.1943L822.372 76.8643L828.229 55.873L835.308 35.2061L836.447 58.5576L835.901 82.1943L838.975 80.9727L848.963 80.1787L855.888 80.9727L865.2 83.0625L879.261 90.0938L888.573 93.7051L901.305 97.125L925.228 104.976L930.36 107.526L933.18 111.958L934.12 117.33L935.044 166.08L935.866 215.637L891.642 220.547L879.574 223.564L867.551 227.725L861.283 233.873L855.985 248.642L832.875 296.545H338.075V271.208L676.45 271.84V259.49L660.367 238.243H594.435L594.084 236.324H598.96V224.67L575.034 213.906L560.164 214.076L562.523 204.098L563.336 193.385L562.446 182.595L559.7 174.82L555.794 168.13L550.572 161.176L544.54 155.602L537.324 149.875L534.461 152.242L538.545 157.091L541.142 161.787L541.333 166.482L538.993 172.779L533.419 180.615L528.421 189.504L526.058 197.583V206.951L528.381 214.388L489.255 215.101V216.362H489.871V225.258H489.255L489.418 226.034L502.415 233.559V238.243H463.588V178.229L461.734 175.403L458.879 173.548L456.382 172.361V146.344H444.111V172.361L440.141 174.729L438.188 176.15L436.9 178.078V186.439H421.627V178.229L416.805 166.012L413.576 161.097L410.325 157.149L400.094 156.329H387.174L371.343 157.337L367.618 161.46L364.196 166.854L359.49 179.155L355.958 232.639L357.976 238.122L349.501 238.297V224.881H318.542L309.849 238.285H234.003L213.914 259.636V265.624L258.47 271.29H304.56V297.016H10.7906L5.43317 295.967L1.34332 293.438L0.00445557 289.57V279.308L3.57379 133.992L4.78864 114.136L5.6568 110.194L8.03668 107.74L17.8336 102.838L57.0162 91.2275L77.7711 80.5205L87.7095 79.4883L100.931 80.5205L104.233 11.749L110.139 4.30566H132.086L140.127 3.56543L178.241 2.62109L176.782 14.8975L180.866 31.8145L183.199 83.21V102.401L176.782 121.36L172.116 128.069L168.032 144.986L160.157 162.531L245.135 160.154L367.353 161.46L368.105 160.219L367.828 158.854L366.531 155.798H360.739L358.207 146.77L357.215 138.071L352.371 133.557L353.802 123.428L353.032 112.968L354.677 102.397L355.343 82.5791L363.931 35.2354L368.556 21.8027L369.415 8.25977L366.244 5.83691L360.409 7.26855L323.084 9.4707L286.419 11.4531L280.248 12.4043L272.365 10.8721L262.673 10.3232L257.609 12.4043L244.231 8.64355L230.381 6.94727L225.388 5.44043L219.239 4.49316L210.031 3.36719H206.922L205.226 2.14258C269.12 1.29739 307.449 1.30222 371.343 0.457031L653.642 1.54883ZM549.739 167.694L555.179 178.575L558.233 189.742V201.004L555.752 207.494L551.552 212.093L546.208 213.89L539.526 212.648L535.231 210.453L531.414 206.254L530.65 201.004L531.414 195.946L533.609 189.742L537.044 183.634L543.726 170.939L544.298 162.254H545.158L549.739 167.694Z" fill="#019740"/>
</g>
</svg>
